# AST/ASF file generated using VICON BodyLanguage
# -----------------------------------------------
:version 1.10
:name VICON
:units
  mass 1.0
  length 0.45
  angle deg
:documentation
   .ast/.asf automatically generated from VICON data using
   VICON BodyBuilder and BodyLanguage model FoxedUp or BRILLIANT.MOD
:root
   order TX TY TZ RX RY RZ
   axis XYZ
   position 0 0 0  
   orientation 0 0 0 
:bonedata
  begin
     id 1 
     name lhipjoint
     direction 0.630082 -0.636569 0.44472 
     length 2.82754 
     axis 0 0 0  XYZ
  end
  begin
     id 2 
     name lfemur
     direction 0.34202 -0.939693 0  
     length 7.26371  
     axis 0 0 20  XYZ
    dof rx ry rz
    limits (-160.0 20.0)
           (-70.0 70.0)
           (-60.0 70.0)
  end
  begin
     id 3 
     name ltibia
     direction 0.34202 -0.939693 0   
     length 7.88616   
     axis 0 0 20   XYZ
    dof rx
    limits (-10.0 170.0)
  end
  begin
     id 4 
     name lfoot
     direction 0.0603448 -0.165796 0.984312   
     length 1.77861   
     axis -90 7.62852e-016 20   XYZ
    dof rx rz
    limits (-45.0 90.0)
           (-70.0 20.0)
  end
  begin
     id 5 
     name ltoes
     direction 1.53577e-011 -4.21876e-011 1   
     length 0.902235   
     axis -90 7.62852e-016 20   XYZ
    dof rx
    limits (-90.0 20.0)
  end
  begin
     id 6 
     name rhipjoint
     direction -0.656778 -0.61817 0.431866   
     length 2.9117  
     axis 0 0 0  XYZ 
  end
  begin
     id 7 
     name rfemur
     direction -0.34202 -0.939693 0   
     length 6.81603   
     axis 0 0 -20   XYZ
    dof rx ry rz
    limits (-160.0 20.0)
           (-70.0 70.0)
           (-70.0 60.0)
  end
  begin
     id 8 
     name rtibia
     direction -0.34202 -0.939693 0   
     length 8.05997   
     axis 0 0 -20   XYZ
    dof rx
    limits (-10.0 170.0)
 end
 begin
     id 9 
     name rfoot
     direction -0.0862404 -0.236944 0.967688   
     length 1.84899  
     axis -90 -7.62852e-016 -20   XYZ
    dof rx rz
    limits (-45.0 90.0)
           (-20.0 70.0)
  end
  begin
     id 10 
     name rtoes
     direction -1.53561e-011 -4.21798e-011 1   
     length 0.931579   
     axis -90 -7.62852e-016 -20   XYZ
    dof rx
    limits (-90.0 20.0)
  end
  begin
     id 11 
     name lowerback
     direction -0.0110203 0.991769 -0.127564   
     length 2.05686   
     axis 0 0 0   XYZ
    dof rx ry rz
    limits (-20.0 45.0)
           (-30.0 30.0)
           (-30.0 30.0)
  end
  begin
     id 12 
     name upperback
     direction 0.0109719 0.99993 -0.00432479   
     length 2.06234   
     axis 0 0 0   XYZ
    dof rx ry rz
    limits (-20.0 45.0)
           (-30.0 30.0)
           (-30.0 30.0)
  end
  begin
     id 13 
     name thorax
     direction 0.0173308 0.998351 0.0547306   
     length 2.09856   
     axis 0 0 0   XYZ
    dof rx ry rz
    limits (-20.0 45.0)
           (-30.0 30.0)
           (-30.0 30.0)
  end
  begin
     id 14 
     name lowerneck
     direction -0.0311736 0.989033 0.144366   
     length 1.98151   
     axis 0 0 0   XYZ
    dof rx ry rz
    limits (-20.0 45.0)
           (-30.0 30.0)
           (-30.0 30.0)
  end
  begin
     id 15 
     name upperneck
     direction 0.0421057 0.975772 -0.214698   
     length 2.01457   
     axis 0 0 0   XYZ
    dof rx ry rz
    limits (-20.0 45.0)
           (-30.0 30.0)
           (-30.0 30.0)
  end
  begin
     id 16
     name head
     direction 0.0136911 0.995958 -0.0887718  
     length 2.03562  
     axis 0 0 0   XYZ
    dof rx ry rz
    limits (-20.0 45.0)
           (-30.0 30.0)
           (-30.0 30.0)
  end
  begin
     id 17 
     name lclavicle
     direction 0.915335 0.396201 0.0720134  
     length 4.16217  
     axis 0 0 0   XYZ
    dof ry rz
    limits (-20.0 10.0)
           (0.0 20.0)
  end
  begin
     id 18 
     name lhumerus
     direction 1 -4.48965e-011 6.383e-018   
     length 4.93042   
     axis -180 -30 -90   XYZ
    dof rx ry rz
    limits (-60.0 90.0)
           (-90.0 90.0)
           (-90.0 90.0)
  end
  begin
     id 19
     name lradius
     direction 1 -4.48972e-011 8.8689e-027   
     length 3.68177   
     axis -180 -30 -90   XYZ
    dof rx
    limits (-10.0 170.0)
  end
  begin
     id 20
     name lwrist
     direction 1 -4.48953e-011 1.17971e-026   
     length 1.84089   
     axis -7.69454e-015 90 90   XYZ
    dof ry
    limits (-180.0 0.0)
 end
  begin
     id 21 
     name lhand
     direction 1 -4.49027e-011 2.35802e-026   
     length 0.721479   
     axis -1.50533e-014 90 90   XYZ
    dof rx rz
    limits (-90.0 90.0)
           (-45.0 45.0)
  end
  begin
     id 22 
     name lfingers
     direction 1 -4.48915e-011 4.72027e-026   
     length 0.581675   
     axis -3.01059e-014 90 90   XYZ
    dof rx
    limits (0.0 90.0)
  end
  begin
     id 23
     name lthumb
     direction 0.707107 -6.34948e-011 0.707107   
     length 0.835172   
     axis -90 45 -5.12164e-014   XYZ
    dof rx rz
    limits (-45.0 45.0)
           (-45.0 45.0)
  end
  begin
     id 24 
     name rclavicle
     direction -0.882781 0.469197 0.0234974   
     length 3.95647  
     axis 0 0 0   XYZ 
    dof ry rz
    limits (-10.0 20.0)
           (-20.0 0.0)
  end
  begin
     id 25 
     name rhumerus
     direction -1 -4.48965e-011 -1.54906e-018  
     length 5.07905   
     axis -180 30 90   XYZ
    dof rx ry rz
    limits (-90.0 60.0)
           (-90.0 90.0)
           (-90.0 90.0)
  end
  begin
     id 26 
     name rradius
     direction -1 -4.48972e-011 5.47489e-027   
     length 3.54394   
     axis -180 30 90   XYZ
    dof rx
    limits (-10.0 170.0)
  end
  begin
     id 27 
     name rwrist
     direction -1 -4.48955e-011 1.17969e-026   
     length 1.77197   
     axis -7.69454e-015 -90 -90   XYZ
    dof ry
    limits (-180.0 0.0)
  end
  begin
     id 28
     name rhand
     direction -1 -4.48982e-011 2.35888e-026   
     length 0.681156   
     axis -1.50533e-014 -90 -90   XYZ
    dof rx rz
    limits (-90.0 90.0)
           (-45.0 45.0)
  end
  begin
     id 29
     name rfingers
     direction -1 -4.48955e-011 4.71877e-026   
     length 0.549165   
     axis -3.01059e-014 -90 -90   XYZ
    dof rx
    limits (0.0 90.0)
  end
  begin
     id 30
     name rthumb
     direction -0.707107 -6.3491e-011 0.707107   
     length 0.788495   
     axis -90 -45 5.12164e-014   XYZ
    dof rx rz
    limits (-45.0 45.0)
           (-45.0 45.0)
  end
:hierarchy
  begin
    root lhipjoint rhipjoint lowerback
    lhipjoint lfemur
    lfemur ltibia
    ltibia lfoot
    lfoot ltoes
    rhipjoint rfemur
    rfemur rtibia
    rtibia rfoot
    rfoot rtoes
    lowerback upperback
    upperback thorax
    thorax lowerneck lclavicle rclavicle
    lowerneck upperneck
    upperneck head
    lclavicle lhumerus
    lhumerus lradius
    lradius lwrist
    lwrist lhand lthumb
    lhand lfingers
    rclavicle rhumerus
    rhumerus rradius
    rradius rwrist
    rwrist rhand rthumb
    rhand rfingers
  end

#!OML:ASF H:\Bending\Project 1\Capture day 1\Session 1\Subject.ASF
:FULLY-SPECIFIED
:DEGREES
209
root -9.4313 17.9722 -16.3134 223.539 88.0903 220.308
lowerback 1.85753 0.514707 1.18347
upperback -3.50144 0.912464 2.60988
thorax -4.68204 0.491599 1.97902
lowerneck -26.5892 -4.4641 -6.62052
upperneck 29.2264 -4.91512 4.55232
head 14.9075 -2.05862 2.03265
rclavicle -1.43622e-014 -1.90833e-014
rhumerus -10.9115 15.998 -86.4939
rradius 86.0335
rwrist 4.42978
rhand -31.7232 -42.5734
rfingers 7.12502
rthumb -4.98144 -72.4948
lclavicle -1.43622e-014 -1.90833e-014
lhumerus -10.7983 -29.0439 93.8095
lradius 79.9993
lwrist 51.3268
lhand -38.765 14.4904
lfingers 7.12502
lthumb -11.7771 44.1393
rfemur 6.66281 -1.85547 15.3844
rtibia 3.49861e-014
rfoot -10.6823 -17.8339
rtoes 9.32233
lfemur -7.12977 -13.3976 -11.5339
ltibia 22.0915
lfoot -20.0848 9.1366
ltoes -19.5721
210
root -9.43412 17.9719 -16.3111 222.656 88.1536 219.426
lowerback 1.89915 0.567527 1.1944
upperback -3.48789 0.980634 2.55582
thorax -4.69208 0.523329 1.91244
lowerneck -26.5731 -4.55708 -6.824
upperneck 29.2628 -4.99304 4.64201
head 14.9367 -2.10132 2.0891
rclavicle 6.75868e-015 -1.74931e-014
rhumerus -10.0659 15.7556 -86.2851
rradius 85.2161
rwrist 3.92363
rhand -31.8316 -42.1047
rfingers 7.12502
rthumb -5.08608 -72.0237
lclavicle 6.75868e-015 -1.74931e-014
lhumerus -9.83491 -29.0822 93.3954
lradius 79.0712
lwrist 51.9027
lhand -38.7891 14.6991
lfingers 7.12502
lthumb -11.8003 44.3467
rfemur 6.64447 -1.8288 15.3228
rtibia -7.95139e-015
rfoot -10.6716 -17.8431
rtoes 9.2432
lfemur -7.09609 -13.4048 -11.5975
ltibia 22.0311
lfoot -20.0721 9.11148
ltoes -19.2114
211
root -9.43893 17.9732 -16.3071 222.45 88.2 219.166
lowerback 1.90377 0.607402 1.2204
upperback -3.47168 1.03093 2.4987
thorax -4.67735 0.545625 1.8356
lowerneck -26.5901 -4.6339 -7.0014
upperneck 29.2652 -5.06005 4.73961
head 14.9563 -2.13553 2.14572
rclavicle 2.98177e-016 1.98785e-014
rhumerus -9.22468 15.4312 -86.1601
rradius 84.3629
rwrist 3.50239
rhand -31.8517 -41.5836
rfingers 7.12502
rthumb -5.10553 -71.5021
lclavicle 2.98177e-016 1.98785e-014
lhumerus -8.94115 -29.189 92.9424
lradius 78.2222
lwrist 52.358
lhand -38.8621 14.8551
lfingers 7.12502
lthumb -11.8707 44.4986
rfemur 6.56045 -1.80424 15.3096
rtibia 2.70347e-014
rfoot -10.6256 -17.8721
rtoes 9.05923
lfemur -7.13388 -13.2974 -11.5934
ltibia 21.9689
lfoot -19.9953 9.00515
ltoes -19.0378
212
root -9.44501 17.9759 -16.3016 222.773 88.2221 219.383
lowerback 1.86835 0.616627 1.25303
upperback -3.4506 1.03939 2.44376
thorax -4.63356 0.547008 1.76022
lowerneck -26.6216 -4.67511 -7.12362
upperneck 29.2042 -5.09785 4.83505
head 14.9462 -2.15211 2.19674
rclavicle -5.36719e-015 -1.43125e-014
rhumerus -8.37279 15.116 -86.1171
rradius 83.4579
rwrist 3.17381
rhand -31.8238 -41.127
rfingers 7.12502
rthumb -5.0786 -71.0461
lclavicle -5.36719e-015 -1.43125e-014
lhumerus -8.14203 -29.3013 92.4929
lradius 77.4723
lwrist 52.6022
lhand -38.9731 14.923
lfingers 7.12502
lthumb -11.9777 44.5603
rfemur 6.41738 -1.79139 15.3402
rtibia -2.38542e-014
rfoot -10.5516 -17.9106
rtoes 8.80299
lfemur -7.25027 -13.0737 -11.525
ltibia 21.9204
lfoot -19.8668 8.81846
ltoes -19.0457
213
root -9.45136 17.9794 -16.2957 223.475 88.23 219.948
lowerback 1.80815 0.587108 1.27675
upperback -3.42173 0.995012 2.39668
thorax -4.56671 0.522639 1.70133
lowerneck -26.6606 -4.6611 -7.15734
upperneck 29.084 -5.08229 4.89864
head 14.9023 -2.14147 2.22925
rclavicle -8.77137e-015 -3.73715e-014
rhumerus -7.51175 14.9028 -86.1339
rradius 82.4891
rwrist 2.88894
rhand -31.8326 -40.8256
rfingers 7.12502
rthumb -5.08706 -70.7445
lclavicle -8.77137e-015 -3.73715e-014
lhumerus -7.44037 -29.3499 92.0812
lradius 76.8181
lwrist 52.5911
lhand -39.0665 14.9038
lfingers 7.12502
lthumb -12.0678 44.5358
rfemur 6.23929 -1.78395 15.392
rtibia -4.77083e-015
rfoot -10.4617 -17.946
rtoes 8.50886
lfemur -7.42038 -12.7808 -11.423
ltibia 21.8981
lfoot -19.7304 8.58998
ltoes -19.1067
214
root -9.45705 17.9826 -16.2908 224.559 88.2423 220.896
lowerback 1.75115 0.523406 1.2794
upperback -3.38332 0.904333 2.36313
thorax -4.49153 0.476208 1.67079
lowerneck -26.7096 -4.58145 -7.08675
upperneck 28.9349 -4.99542 4.90268
head 14.8362 -2.09792 2.23336
rclavicle 3.75206e-015 -2.14687e-014
rhumerus -6.66359 14.8467 -86.1766
rradius 81.4572
rwrist 2.56995
rhand -31.9742 -40.7091
rfingers 7.12502
rthumb -5.22381 -70.6247
lclavicle 3.75206e-015 -2.14687e-014
lhumerus -6.81892 -29.282 91.7246
lradius 76.2415
lwrist 52.3364
lhand -39.0623 14.8361
lfingers 7.12502
lthumb -12.0638 44.4683
rfemur 6.05836 -1.76492 15.4385
rtibia -1.59028e-015
rfoot -10.3674 -17.9685
rtoes 8.19865
lfemur -7.60016 -12.4939 -11.3269
ltibia 21.9083
lfoot -19.6376 8.38398
ltoes -19.0819
215
root -9.46158 17.9848 -16.2884 226.185 88.2744 222.415
lowerback 1.72565 0.442647 1.26032
upperback -3.33631 0.791246 2.3467
thorax -4.42557 0.419619 1.671
lowerneck -26.7716 -4.44472 -6.9343
upperneck 28.7938 -4.83903 4.84443
head 14.7663 -2.02474 2.21214
rclavicle 4.5472e-015 1.43125e-014
rhumerus -5.86332 14.9363 -86.2084
rradius 80.382
rwrist 2.15342
rhand -32.3054 -40.7397
rfingers 7.12502
rthumb -5.5436 -70.6472
lclavicle 4.5472e-015 1.43125e-014
lhumerus -6.2464 -29.0847 91.4256
lradius 75.7174
lwrist 51.9015
lhand -38.8943 14.7753
lfingers 7.12502
lthumb -11.9018 44.417
rfemur 5.90205 -1.71747 15.462
rtibia 9.54166e-015
rfoot -10.2769 -17.9744
rtoes 7.884
lfemur -7.74791 -12.2827 -11.2662
ltibia 21.9499
lfoot -19.6221 8.26154
ltoes -18.9164
216
root -9.46496 17.9855 -16.2889 228.541 88.3296 224.707
lowerback 1.74754 0.369753 1.23255
upperback -3.28435 0.690191 2.3463
thorax -4.38203 0.369544 1.6916
lowerneck -26.8429 -4.28097 -6.76296
upperneck 28.684 -4.64106 4.75642
head 14.7083 -1.93576 2.18457
rclavicle 3.77691e-015 2.14687e-014
rhumerus -5.1424 15.0924 -86.1992
rradius 79.2959
rwrist 1.62835
rhand -32.7993 -40.8294
rfingers 7.12502
rthumb -6.02044 -70.7239
lclavicle 3.77691e-015 2.14687e-014
lhumerus -5.6854 -28.7944 91.1787
lradius 75.2188
lwrist 51.3856
lhand -38.5492 14.7641
lfingers 7.12502
lthumb -11.569 44.4248
rfemur 5.78329 -1.63524 15.4596
rtibia -9.54166e-015
rfoot -10.195 -17.9656
rtoes 7.57984
lfemur -7.84284 -12.1785 -11.2493
ltibia 22.0148
lfoot -19.6831 8.25088
ltoes -18.6786
217
root -9.46772 17.9851 -16.292 231.657 88.3979 227.792
lowerback 1.81439 0.328349 1.21669
upperback -3.23244 0.63345 2.3548
thorax -4.365 0.341293 1.71205
lowerneck -26.9116 -4.13212 -6.65158
upperneck 28.6069 -4.447 4.69264
head 14.6682 -1.85116 2.17711
rclavicle -1.66482e-015 1.98785e-014
rhumerus -4.51213 15.1991 -86.1344
rradius 78.2305
rwrist 1.04938
rhand -33.3348 -40.8743
rfingers 7.12502
rthumb -6.53738 -70.7534
lclavicle -1.66482e-015 1.98785e-014
lhumerus -5.10057 -28.4843 90.977
lradius 74.7166
lwrist 50.8998
lhand -38.0833 14.8104
lfingers 7.12502
lthumb -11.1196 44.4958
rfemur 5.6981 -1.52654 15.4407
rtibia -9.54166e-015
rfoot -10.125 -17.9473
rtoes 7.31316
lfemur -7.89134 -12.1611 -11.2649
ltibia 22.0894
lfoot -19.7853 8.33197
ltoes -18.5118
218
root -9.47054 17.9844 -16.2969 235.23 88.4637 231.35
lowerback 1.90815 0.330517 1.22999
upperback -3.1848 0.637101 2.36074
thorax -4.36871 0.342138 1.71003
lowerneck -26.9649 -4.03303 -6.65316
upperneck 28.5491 -4.29915 4.69545
head 14.6427 -1.78874 2.20735
rclavicle 4.34841e-015 1.98785e-014
rhumerus -3.95438 15.1578 -86.0183
rradius 77.2021
rwrist 0.514325
rhand -33.7319 -40.7961
rfingers 7.12502
rthumb -6.9208 -70.663
lclavicle 4.34841e-015 1.98785e-014
lhumerus -4.46498 -28.2324 90.8124
lradius 74.1799
lwrist 50.5414
lhand -37.6031 14.8889
lfingers 7.12502
lthumb -10.6564 44.5987
rfemur 5.63079 -1.41093 15.4184
rtibia -1.59028e-014
rfoot -10.0714 -17.9242
rtoes 7.12822
lfemur -7.91944 -12.1733 -11.2919
ltibia 22.159
lfoot -19.8761 8.44725
ltoes -18.5437
219
root -9.47397 17.984 -16.3023 238.641 88.5159 234.737
lowerback 2.00543 0.370475 1.27585
upperback -3.14342 0.692495 2.35264
thorax -4.38149 0.367439 1.67223
lowerneck -26.9975 -3.9933 -6.76013
upperneck 28.4983 -4.21445 4.7636
head 14.6258 -1.75518 2.26978
rclavicle -1.49089e-015 -1.98785e-014
rhumerus -3.42616 14.9378 -85.8729
rradius 76.2047
rwrist 0.11644
rhand -33.826 -40.5718
rfingers 7.12502
rthumb -7.01158 -70.4357
lclavicle -1.49089e-015 -1.98785e-014
lhumerus -3.76577 -28.0844 90.672
lradius 73.5791
lwrist 50.3694
lhand -37.2199 14.9575
lfingers 7.12502
lthumb -10.2868 44.686
rfemur 5.56363 -1.31007 15.4001
rtibia 3.18055e-015
rfoot -10.0384 -17.8992
rtoes 7.06663
lfemur -7.95644 -12.1526 -11.3121
ltibia 22.211
lfoot -19.912 8.52935
ltoes -18.8034
220
root -9.47818 17.9847 -16.3074 241.256 88.554 237.307
lowerback 2.08825 0.425935 1.34133
upperback -3.10725 0.768395 2.32458
thorax -4.39119 0.40191 1.60152
lowerneck -27.0196 -3.99077 -6.89916
upperneck 28.457 -4.17348 4.8413
head 14.6152 -1.74226 2.33284
rclavicle 6.8705e-015 -7.95139e-016
rhumerus -2.87574 14.5984 -85.7274
rradius 75.2164
rwrist -0.102983
rhand -33.5468 -40.2363
rfingers 7.12502
rthumb -6.74206 -70.1089
lclavicle 6.8705e-015 -7.95139e-016
lhumerus -3.00596 -28.0341 90.5338
lradius 72.8938
lwrist 50.3892
lhand -37 14.9798
lfingers 7.12502
lthumb -10.0746 44.7187
rfemur 5.48519 -1.2382 15.3848
rtibia -4.77083e-015
rfoot -10.0281 -17.8738
rtoes 7.14463
lfemur -8.01964 -12.0659 -11.3189
ltibia 22.239
lfoot -19.8816 8.53287
ltoes -19.1904
221
root -9.48288 17.9866 -16.3122 242.806 88.5849 238.788
lowerback 2.15109 0.467588 1.40416
upperback -3.07266 0.824341 2.27921
thorax -4.39032 0.426159 1.51562
lowerneck -27.0563 -3.98212 -6.96228
upperneck 28.4444 -4.129 4.83882
head 14.6157 -1.73096 2.35102
rclavicle 1.25483e-015 1.66979e-014
rhumerus -2.26411 14.2652 -85.6059
rradius 74.216
rwrist -0.175762
rhand -32.9668 -39.8583
rfingers 7.12502
rthumb -6.18212 -69.7481
lclavicle 1.25483e-015 1.66979e-014
lhumerus -2.2025 -28.0314 90.3682
lradius 72.1213
lwrist 50.5505
lhand -36.9384 14.9426
lfingers 7.12502
lthumb -10.0153 44.6843
rfemur 5.39411 -1.19674 15.3653
rtibia -2.06736e-014
rfoot -10.0369 -17.8505
rtoes 7.32723
lfemur -8.10734 -11.9265 -11.3183
ltibia 22.244
lfoot -19.8093 8.4557
ltoes -19.5234
222
root -9.48755 17.9891 -16.3172 243.556 88.6159 239.46
lowerback 2.2015 0.472291 1.44468
upperback -3.03552 0.829019 2.22746
thorax -4.37891 0.42546 1.43874
lowerneck -27.1363 -3.92436 -6.86073
upperneck 28.4846 -4.0288 4.67608
head 14.6352 -1.70083 2.28715
rclavicle 6.23687e-015 1.35174e-014
rhumerus -1.58269 14.0765 -85.514
rradius 73.2046
rwrist -0.191464
rhand -32.2856 -39.5028
rfingers 7.12502
rthumb -5.52449 -69.4108
lclavicle 6.23687e-015 1.35174e-014
lhumerus -1.38054 -28.0126 90.1459
lradius 71.2795
lwrist 50.7624
lhand -36.9712 14.8629
lfingers 7.12502
lthumb -10.0469 44.6031
rfemur 5.29607 -1.17458 15.3356
rtibia 2.06736e-014
rfoot -10.0527 -17.835
rtoes 7.52455
lfemur -8.20377 -11.7849 -11.3217
ltibia 22.2347
lfoot -19.7403 8.33994
ltoes -19.643
